# xmcd
#
# Track frame offsets:
#	150
#	8998
#	18895
#	31838
#	46781
#	58129
#	68578
#	78956
#	92535
#	105243
#	121890
#	139123
#	151589
#	175170
#	187017
#	201495
#	213618
#	225914
#	242146
#	255394
#	266280
#	279171
#
# Disc length: 3919 seconds
# Revision: 0
# Processed by: cddbd v1.5.2PL0 Copyright (c) Steve Scherf et al.
# Submitted via: dBpowerAMP V12.0
#
DISCID=110f4d16
DTITLE=Various Artist - The Complete Mercury and Columbia Singles As and Bs 1955-62
DYEAR=1959
DGENRE=Country
TTITLE0=Jimmy Dean Orchestra conducted by Jimmy Carroll - Stay a Little Longer
TTITLE1=Jimmy Dean Orchestra directed by Frank de Vol - Theres Still Time, Brother
TTITLE2=Jimmy Dean Orchestra directed by Frank de Vol - Thanks for the Dream
TTITLE3=Jimmy Dean Orchestra conducted by Jimmy Carroll - Little Boy Lost
TTITLE4=Jimmy Dean Orchestra conducted by Jimmy Carroll - There'll Be No Teardrops Tonight
TTITLE5=Jimmy Dean - Its Been a Long, Long Time
TTITLE6=Jimmy Dean - Give Me Back My Heart
TTITLE7=Jimmy Dean - Big Bad John
TTITLE8=Jimmy Dean - I Won't Go Huntin' with You, Jake
TTITLE9=Jimmy Dean - Oklahoma Bill
TTITLE10=Jimmy Dean - Dear Ivan
TTITLE11=Jimmy Dean - Smoke, Smoke, Smoke That Cigarette
TTITLE12=Jimmy Dean - To a Sleeping Beauty
TTITLE13=Jimmy Dean - The Cajun Queen
TTITLE14=Jimmy Dean - P.T. 109
TTITLE15=Jimmy Dean - Walk On, Boy
TTITLE16=Jimmy Dean - Steel Men
TTITLE17=Jimmy Dean - Little Bitty Big John
TTITLE18=Jimmy Dean - Please Pass the Biscuits
TTITLE19=Jimmy Dean - Little Black Book
TTITLE20=Jimmy Dean - Gonna Raise a Ruckus Tonight
TTITLE21=Jimmy Dean - A Day That Changed the World
EXTD=
EXTT0=
EXTT1=
EXTT2=
EXTT3=
EXTT4=
EXTT5=
EXTT6=
EXTT7=
EXTT8=
EXTT9=
EXTT10=
EXTT11=
EXTT12=
EXTT13=
EXTT14=
EXTT15=
EXTT16=
EXTT17=
EXTT18=
EXTT19=
EXTT20=
EXTT21=
PLAYORDER=
